<?xml version="1.0" standalone="no"?>
<!DOCTYPE svg PUBLIC "-//W3C//DTD SVG 20010904//EN"
 "http://www.w3.org/TR/2001/REC-SVG-20010904/DTD/svg10.dtd">
<svg version="1.0" xmlns="http://www.w3.org/2000/svg"
 width="16.000000pt" height="16.000000pt" viewBox="0 0 16.000000 16.000000"
 preserveAspectRatio="xMidYMid meet">
<metadata>
Created by potrace 1.11, written by Peter Selinger 2001-2013
</metadata>
<g transform="translate(0.000000,16.000000) scale(0.006154,-0.006154)"
fill="#000000" stroke="none">
<path d="M1105 2535 c-194 -35 -336 -91 -495 -193 -73 -48 -70 -45 -186 -158
-115 -113 -173 -191 -237 -319 -94 -188 -131 -344 -132 -555 0 -156 5 -202 36
-325 102 -400 421 -741 813 -869 137 -45 223 -59 377 -61 355 -6 647 113 899
365 185 184 292 382 347 640 25 117 25 362 0 480 -55 257 -163 458 -346 640
-185 185 -380 291 -636 346 -100 21 -342 26 -440 9z"/>
</g>
</svg>
