<?xml version="1.0" standalone="no"?>
<!DOCTYPE svg PUBLIC "-//W3C//DTD SVG 20010904//EN"
 "http://www.w3.org/TR/2001/REC-SVG-20010904/DTD/svg10.dtd">
<svg version="1.0" xmlns="http://www.w3.org/2000/svg"
 width="260.000000pt" height="260.000000pt" viewBox="0 0 260.000000 260.000000"
 preserveAspectRatio="xMidYMid meet">
<metadata>
Created by potrace 1.11, written by Peter Selinger 2001-2013
</metadata>
<g transform="translate(0.000000,260.000000) scale(0.100000,-0.100000)"
fill="#000000" stroke="none">
<path d="M1168 2595 c-1 -1 -23 -6 -48 -9 -25 -3 -54 -8 -65 -10 -11 -2 -34
-6 -51 -10 -107 -20 -292 -99 -402 -170 -390 -252 -608 -663 -597 -1126 2 -80
6 -156 10 -170 3 -14 8 -43 11 -65 4 -22 10 -48 15 -57 5 -9 9 -27 9 -40 0
-13 4 -28 8 -34 4 -5 14 -27 21 -49 69 -208 253 -458 430 -585 19 -14 43 -32
53 -40 79 -64 327 -175 436 -195 14 -2 51 -10 81 -17 31 -6 130 -12 221 -12
136 0 183 4 268 22 296 66 543 216 735 447 74 88 200 295 180 295 -4 0 -3 4 3
8 15 10 80 205 88 264 4 26 10 68 15 94 9 47 7 302 -2 359 -61 363 -253 668
-555 879 -131 91 -326 173 -486 203 -69 13 -368 27 -378 18z"/>
</g>
</svg>
